M48
; DRILL file {KiCad 9.0.7} date 2026-03-15T18:04:15+0100
; FORMAT={-:-/ absolute / metric / decimal}
; #@! TF.CreationDate,2026-03-15T18:04:15+01:00
; #@! TF.GenerationSoftware,Kicad,Pcbnew,9.0.7
; #@! TF.FileFunction,Plated,1,2,PTH
FMAT,2
METRIC
; #@! TA.AperFunction,Plated,PTH,ComponentDrill
T1C0.500
; #@! TA.AperFunction,Plated,PTH,ViaDrill
T2C0.600
; #@! TA.AperFunction,Plated,PTH,ComponentDrill
T3C1.000
; #@! TA.AperFunction,Plated,PTH,ComponentDrill
T4C1.100
; #@! TA.AperFunction,Plated,PTH,ComponentDrill
T5C1.300
; #@! TA.AperFunction,Plated,PTH,ComponentDrill
T6C1.600
; #@! TA.AperFunction,Plated,PTH,ComponentDrill
T7C2.500
; #@! TA.AperFunction,Plated,PTH,ComponentDrill
T8C3.000
%
G90
G05
T1
X74.0Y-77.545
X74.0Y-79.445
T2
X34.75Y-84.5
X35.75Y-83.0
X49.85Y-76.8
X55.0Y-98.0
X55.05Y-80.65
X56.0Y-79.7
X56.25Y-95.0
X57.5Y-79.4
X58.5Y-82.25
X59.2Y-96.83
X60.825Y-71.9
X61.5Y-93.0
X61.5Y-100.5
X61.95Y-70.9
X62.4Y-86.7
X63.65Y-86.75
X64.75Y-86.25
X66.25Y-96.5
X66.4Y-86.8
X66.45Y-42.6
X67.0Y-100.75
X67.5Y-80.25
X67.888Y-78.728
X68.086Y-72.586
X69.0Y-43.0
X69.0Y-67.0
X69.75Y-41.25
X70.0Y-88.25
X70.0Y-84.25
X70.05Y-93.0
X70.45Y-64.6
X70.45Y-70.0
X72.25Y-75.25
X72.95Y-63.1
X73.5Y-93.05
X74.3Y-36.7
X74.35Y-40.8
X74.85Y-87.55
X75.5Y-36.75
X75.55Y-40.85
X76.75Y-36.75
X76.8Y-40.85
X77.0Y-95.0
X78.0Y-36.75
X78.05Y-40.85
X78.25Y-75.5
X78.25Y-81.5
X79.25Y-36.75
X79.3Y-40.85
X80.45Y-48.15
X80.5Y-45.3
X81.25Y-84.75
X83.0Y-78.5
X84.95Y-38.35
X88.75Y-44.45
X91.3Y-45.15
X93.5Y-54.0
X96.85Y-65.3
T3
X34.475Y-67.59
X34.475Y-70.13
X34.475Y-72.67
X34.475Y-75.21
X34.475Y-77.75
X35.475Y-108.75
X38.015Y-108.75
X44.75Y-107.75
X47.25Y-102.75
X49.75Y-107.75
X59.88Y-45.195
X59.88Y-47.735
X59.95Y-106.9
X62.42Y-45.195
X62.42Y-47.735
X64.96Y-45.195
X64.96Y-47.735
X67.5Y-45.195
X67.5Y-47.735
X70.04Y-45.195
X70.04Y-47.735
X72.58Y-45.195
X72.58Y-47.735
X73.9Y-107.15
X75.12Y-45.195
X75.12Y-47.735
X83.0Y-96.0
X83.1Y-90.85
X85.5Y-107.5
X88.0Y-102.5
X89.25Y-83.42
X89.25Y-85.96
X89.25Y-88.5
X90.5Y-107.5
X96.105Y-43.98
X96.105Y-46.52
X96.105Y-49.06
X96.105Y-51.6
X97.5Y-108.5
X98.645Y-43.98
X98.645Y-46.52
X98.645Y-49.06
X98.645Y-51.6
X100.0Y-68.37
X100.0Y-70.91
X100.0Y-73.45
X100.0Y-75.99
X100.04Y-108.5
X100.75Y-80.0
X102.45Y-64.7
X102.54Y-68.37
X102.54Y-70.91
X102.54Y-73.45
X102.54Y-75.99
X102.75Y-49.5
X102.75Y-55.05
T4
X33.32Y-90.25
X33.32Y-92.75
X33.32Y-95.25
X39.55Y-84.02
X42.05Y-84.02
X44.55Y-84.02
X94.0Y-83.5
X94.0Y-88.0
X100.5Y-83.5
X100.5Y-88.0
T5
X47.8Y-89.5
X47.8Y-96.0
X52.3Y-89.5
X52.3Y-96.0
T6
X37.05Y-86.425
X37.05Y-99.075
X47.05Y-86.425
X47.05Y-99.075
T7
X37.13Y-36.19
X37.13Y-59.19
X98.13Y-36.19
X98.13Y-59.19
T8
X32.5Y-35.735
X40.5Y-77.735
X67.5Y-107.735
X94.5Y-77.735
X102.5Y-35.735
M30
