%TF.GenerationSoftware,KiCad,Pcbnew,9.0.7*%
%TF.CreationDate,2026-03-15T18:04:11+01:00*%
%TF.ProjectId,Projecte_MiSE,50726f6a-6563-4746-955f-4d6953452e6b,6/6*%
%TF.SameCoordinates,Original*%
%TF.FileFunction,Soldermask,Bot*%
%TF.FilePolarity,Negative*%
%FSLAX46Y46*%
G04 Gerber Fmt 4.6, Leading zero omitted, Abs format (unit mm)*
G04 Created by KiCad (PCBNEW 9.0.7) date 2026-03-15 18:04:11*
%MOMM*%
%LPD*%
G01*
G04 APERTURE LIST*
G04 Aperture macros list*
%AMRoundRect*
0 Rectangle with rounded corners*
0 $1 Rounding radius*
0 $2 $3 $4 $5 $6 $7 $8 $9 X,Y pos of 4 corners*
0 Add a 4 corners polygon primitive as box body*
4,1,4,$2,$3,$4,$5,$6,$7,$8,$9,$2,$3,0*
0 Add four circle primitives for the rounded corners*
1,1,$1+$1,$2,$3*
1,1,$1+$1,$4,$5*
1,1,$1+$1,$6,$7*
1,1,$1+$1,$8,$9*
0 Add four rect primitives between the rounded corners*
20,1,$1+$1,$2,$3,$4,$5,0*
20,1,$1+$1,$4,$5,$6,$7,0*
20,1,$1+$1,$6,$7,$8,$9,0*
20,1,$1+$1,$8,$9,$2,$3,0*%
G04 Aperture macros list end*
%ADD10R,1.700000X1.700000*%
%ADD11R,1.560000X1.560000*%
%ADD12C,1.560000*%
%ADD13C,1.000000*%
%ADD14C,2.000000*%
%ADD15C,1.700000*%
%ADD16RoundRect,0.250000X0.650000X0.650000X-0.650000X0.650000X-0.650000X-0.650000X0.650000X-0.650000X0*%
%ADD17C,1.800000*%
%ADD18C,3.500000*%
%ADD19O,1.700000X1.700000*%
%ADD20C,1.650000*%
%ADD21C,1.950000*%
%ADD22C,2.400000*%
%ADD23R,1.800000X1.700000*%
%ADD24RoundRect,0.425000X-0.475000X-0.425000X0.475000X-0.425000X0.475000X0.425000X-0.475000X0.425000X0*%
%ADD25C,4.000000*%
G04 APERTURE END LIST*
D10*
%TO.C,J7*%
X83100000Y-90850000D03*
%TD*%
%TO.C,J5*%
X59950000Y-106900000D03*
%TD*%
D11*
%TO.C,RV2*%
X90500000Y-107500000D03*
D12*
X88000000Y-102500000D03*
X85500000Y-107500000D03*
%TD*%
D11*
%TO.C,RV1*%
X49750000Y-107750000D03*
D12*
X47250000Y-102750000D03*
X44750000Y-107750000D03*
%TD*%
D13*
%TO.C,Y1*%
X74000000Y-79445000D03*
X74000000Y-77545000D03*
%TD*%
D14*
%TO.C,SW1*%
X100500000Y-88000000D03*
X94000000Y-88000000D03*
X100500000Y-83500000D03*
X94000000Y-83500000D03*
%TD*%
D10*
%TO.C,J10*%
X73900000Y-107150000D03*
%TD*%
%TO.C,J3*%
X102540000Y-68370000D03*
D15*
X100000000Y-68370000D03*
X102540000Y-70910000D03*
X100000000Y-70910000D03*
X102540000Y-73450000D03*
X100000000Y-73450000D03*
X102540000Y-75990000D03*
X100000000Y-75990000D03*
%TD*%
D16*
%TO.C,J1*%
X75120000Y-45195000D03*
D17*
X75120000Y-47735000D03*
X72580000Y-45195000D03*
X72580000Y-47735000D03*
X70040000Y-45195000D03*
X70040000Y-47735000D03*
X67500000Y-45195000D03*
X67500000Y-47735000D03*
X64960000Y-45195000D03*
X64960000Y-47735000D03*
X62420000Y-45195000D03*
X62420000Y-47735000D03*
X59880000Y-45195000D03*
X59880000Y-47735000D03*
D18*
X67500000Y-107735000D03*
X40500000Y-77735000D03*
X94500000Y-77735000D03*
X32500000Y-35735000D03*
X102500000Y-35735000D03*
%TD*%
D10*
%TO.C,J8*%
X102750000Y-55050000D03*
%TD*%
%TO.C,J11*%
X100750000Y-80000000D03*
%TD*%
%TO.C,J9*%
X102750000Y-49500000D03*
%TD*%
%TO.C,J2*%
X89250000Y-83420000D03*
D15*
X89250000Y-85960000D03*
X89250000Y-88500000D03*
%TD*%
D10*
%TO.C,J12*%
X102450000Y-64700000D03*
%TD*%
%TO.C,R2*%
X35475000Y-108750000D03*
D19*
X38015000Y-108750000D03*
%TD*%
D20*
%TO.C,S1*%
X33320000Y-90250000D03*
X33320000Y-92750000D03*
X33320000Y-95250000D03*
X44550000Y-84020000D03*
X42050000Y-84020000D03*
X39550000Y-84020000D03*
D21*
X47800000Y-96000000D03*
X47800000Y-89500000D03*
X52300000Y-96000000D03*
X52300000Y-89500000D03*
D22*
X37050000Y-86425000D03*
X37050000Y-99075000D03*
X47050000Y-99075000D03*
X47050000Y-86425000D03*
%TD*%
D10*
%TO.C,J6*%
X83000000Y-96000000D03*
%TD*%
D23*
%TO.C,LCD1*%
X96105000Y-43980000D03*
D24*
X98645000Y-43980000D03*
X96105000Y-46520000D03*
X98645000Y-46520000D03*
X96105000Y-49060000D03*
X98645000Y-49060000D03*
X96105000Y-51600000D03*
X98645000Y-51600000D03*
D25*
X98130000Y-59190000D03*
X37130000Y-59190000D03*
X37130000Y-36190000D03*
X98130000Y-36190000D03*
%TD*%
D10*
%TO.C,J4*%
X34475000Y-77750000D03*
D15*
X34475000Y-75210000D03*
X34475000Y-72670000D03*
X34475000Y-70130000D03*
X34475000Y-67590000D03*
%TD*%
D10*
%TO.C,R6*%
X100040000Y-108500000D03*
D19*
X97500000Y-108500000D03*
%TD*%
M02*
